<?xml version="1.0" encoding="UTF-8"?>
<svg width="72px" height="65px" viewBox="0 0 72 65" version="1.1" xmlns="http://www.w3.org/2000/svg" xmlns:xlink="http://www.w3.org/1999/xlink">
    <!-- Generator: Sketch 47.1 (45422) - http://www.bohemiancoding.com/sketch -->
    <title>“</title>
    <desc>Created with Sketch.</desc>
    <defs></defs>
    <g id="Welcome" stroke="none" stroke-width="1" fill="none" fill-rule="evenodd">
        <g id="Preview_2" transform="translate(-661.000000, -1450.000000)" fill="#C1B200">
            <g id="Group-6" transform="translate(34.000000, 1370.000000)">
                <path d="M640.536,144.76 C636.695981,144.76 633.624012,143.080017 631.32,139.72 C629.015988,136.359983 627.864,131.608031 627.864,125.464 C627.864,115.095948 630.023978,106.264036 634.344,98.968 C638.664022,91.6719635 644.663962,85.528025 652.344,80.536 L657.528,87.16 C651.191968,92.3440259 646.392016,97.5759736 643.128,102.856 C639.863984,108.136026 638.232,114.80796 638.232,122.872 C638.616002,122.679999 639.383994,122.584 640.536,122.584 C643.416014,122.584 646.055988,123.447991 648.456,125.176 C650.856012,126.904009 652.056,129.591982 652.056,133.24 C652.056,136.888018 650.952011,139.71999 648.744,141.736 C646.535989,143.75201 643.800016,144.76 640.536,144.76 Z M681.144,144.76 C677.303981,144.76 674.232012,143.080017 671.928,139.72 C669.623988,136.359983 668.472,131.608031 668.472,125.464 C668.472,115.095948 670.631978,106.264036 674.952,98.968 C679.272022,91.6719635 685.271962,85.528025 692.952,80.536 L698.136,87.16 C691.799968,92.3440259 687.000016,97.5759736 683.736,102.856 C680.471984,108.136026 678.84,114.80796 678.84,122.872 C679.224002,122.679999 679.991994,122.584 681.144,122.584 C684.024014,122.584 686.663988,123.447991 689.064,125.176 C691.464012,126.904009 692.664,129.591982 692.664,133.24 C692.664,136.888018 691.560011,139.71999 689.352,141.736 C687.143989,143.75201 684.408016,144.76 681.144,144.76 Z" id="“"></path>
            </g>
        </g>
    </g>
</svg>