<?xml version="1.0" encoding="utf-8"?>
<!-- Generator: Adobe Illustrator 21.1.0, SVG Export Plug-In . SVG Version: 6.00 Build 0)  -->
<svg version="1.1" id="Capa_1" xmlns="http://www.w3.org/2000/svg" xmlns:xlink="http://www.w3.org/1999/xlink" x="0px" y="0px"
	 viewBox="0 0 1420 604" style="enable-background:new 0 0 1420 604;" xml:space="preserve">
<style type="text/css">
	.st0{opacity:0.2574;}
	.st1{fill:url(#SVGID_1_);}
	.st2{opacity:0.1194;}
	.st3{fill:url(#SVGID_2_);}
</style>
<title>fondo_tiles</title>
<desc>Created with Sketch.</desc>
<title>fondo_tiles</title>
<desc>Created with Sketch.</desc>
<g id="Page-1">
	<g id="tiles">
		<g id="fondo_tiles" class="st0">
			<g id="Shape">
				
					<linearGradient id="SVGID_1_" gradientUnits="userSpaceOnUse" x1="412.2061" y1="723.1722" x2="412.2061" y2="722.1722" gradientTransform="matrix(1446 0 0 -1003 -595340 724939.6875)">
					<stop  offset="0" style="stop-color:#FFFFFF;stop-opacity:0.1653"/>
					<stop  offset="1" style="stop-color:#FFFFFF;stop-opacity:0.551"/>
				</linearGradient>
				<path class="st1" d="M1426.7,601c2.1,0,4.2,0,6.3,0l0.1-1003H-13V52.5c2,0,4,0,6,0C193.2,52.8,351.8,75.3,473,120
					c122.1,45,201,114.5,236.8,208.6c33.5,96.2,111.8,165.7,235,208.4C1068.1,579.6,1228.7,601,1426.7,601z"/>
			</g>
		</g>
		
			<g id="fondo_tiles_1_" transform="translate(723.000000, 501.500000) scale(-1, 1) translate(-723.000000, -501.500000) " class="st2">
			<g id="Shape_1_">
				
					<linearGradient id="SVGID_2_" gradientUnits="userSpaceOnUse" x1="1033.2061" y1="723.1722" x2="1033.2061" y2="722.1722" gradientTransform="matrix(-1446 0 0 -1003 1494752 724939.6875)">
					<stop  offset="0" style="stop-color:#FFFFFF;stop-opacity:0.1653"/>
					<stop  offset="1" style="stop-color:#FFFFFF;stop-opacity:0.551"/>
				</linearGradient>
				<path class="st3" d="M1452.7,601c2.1,0,4.2,0,6.3,0l0.1-1003H13V52.5c2,0,4,0,6,0C219.2,52.8,377.8,75.3,499,120
					c122.1,45,201,114.5,236.8,208.6c33.5,96.2,111.8,165.7,235,208.4C1094.1,579.6,1254.7,601,1452.7,601z"/>
			</g>
		</g>
	</g>
</g>
</svg>
