<?xml version="1.0" encoding="utf-8"?>
<!-- Generator: Adobe Illustrator 21.1.0, SVG Export Plug-In . SVG Version: 6.00 Build 0)  -->
<svg version="1.1" id="Capa_1" xmlns="http://www.w3.org/2000/svg" xmlns:xlink="http://www.w3.org/1999/xlink" x="0px" y="0px"
	 viewBox="0 0 300 300" style="enable-background:new 0 0 300 300;" xml:space="preserve">
<style type="text/css">
	.st0{fill:#FFFFFF;}
	.st1{fill:#EC282C;}
</style>
<path class="st0" d="M200.7,213c0,0,31-16.9,31-31.1c0-15.4-21.7-21.8-21.7-21.8s31.5,1,31,21.8S200.7,213,200.7,213L200.7,213z
	 M67.4,181.9c-16.4-7.8,34.1-21.8,34.1-21.8c-56,26.1,19.2,23.4,65.1,18.7c16-1.7,34.1-6.2,34.1-6.2
	C178.3,197.1,83.8,189.7,67.4,181.9L67.4,181.9z M154.2,237.9c12.8-1.2,27.9-6.2,27.9-6.2c-11.4,16.2-66.4,15.2-80.6,9.3
	c-14.2-5.9-12.4-18.7-12.4-18.7C98.4,234.7,130.8,240.1,154.2,237.9L154.2,237.9z M185.2,206.8c0,0-67.2,16.5-89.9,6.2
	c-20.1-9.1-3.1-18.7-3.1-18.7C77.3,214.2,185.2,206.8,185.2,206.8L185.2,206.8z M129.4,262.8c70.3,0,99.2-12.4,99.2-12.4
	c-9.9,26.2-167.8,29-182.9,9.3c-10.6-13.9,31-18.7,31-18.7C46.9,256,59.2,262.8,129.4,262.8L129.4,262.8z M237.9,262.8
	c-57.9,40.6-155,15.6-155,15.6C183.1,286.8,237.9,262.8,237.9,262.8L237.9,262.8z"/>
<path class="st1" d="M138.7,157c0,0-34.7-17.3-31-46.7C112.1,76,155.7,62.7,165,47c8.4-14.1,4.7-33.1,4.7-33.1s9.1,15.2,6.2,28
	C171.7,60.1,155.4,70.5,136,83C121.5,92.3,98,102.8,138.7,157z"/>
<path class="st1" d="M157.3,166.3c0,0,6.5-15.6-9.3-34.2c-15.8-18.6,5.5-52.3,49.6-62.2c0,0-52.9,23.2-40.6,51.1
	c4.6,10.3,11.5,19.3,8,30C160.1,165.9,157.3,166.3,157.3,166.3z"/>
</svg>
